/* XPM */
static char *d68ac58690d940c686c94b3d38a58876vvViESi6pNximDEb[] = {
/* columns rows colors chars-per-pixel */
"60 60 241 2 ",
"   c black",
".  c #010101",
"X  c #020202",
"o  c gray1",
"O  c #040404",
"+  c gray2",
"@  c #060606",
"#  c #070707",
"$  c gray3",
"%  c #090909",
"&  c gray4",
"*  c #0B0B0B",
"=  c #0C0C0C",
"-  c gray5",
";  c #0E0E0E",
":  c gray6",
">  c #101010",
",  c #111111",
"<  c gray7",
"1  c #131313",
"2  c gray8",
"3  c #151515",
"4  c #161616",
"5  c gray9",
"6  c #181818",
"7  c #191919",
"8  c gray10",
"9  c #1B1B1B",
"0  c gray11",
"q  c #1D1D1D",
"w  c #1E1E1E",
"e  c gray12",
"r  c #202020",
"t  c gray13",
"y  c #222222",
"u  c #232323",
"i  c gray14",
"p  c #252525",
"a  c gray15",
"s  c #272727",
"d  c #282828",
"f  c gray16",
"g  c #2A2A2A",
"h  c gray17",
"j  c #2C2C2C",
"k  c #2D2D2D",
"l  c gray18",
"z  c #2F2F2F",
"x  c gray19",
"c  c #313131",
"v  c #323232",
"b  c gray20",
"n  c #343434",
"m  c #353535",
"M  c gray21",
"N  c #373737",
"B  c gray22",
"V  c #393939",
"C  c #3A3A3A",
"Z  c gray23",
"A  c #3C3C3C",
"S  c gray24",
"D  c #3E3E3E",
"F  c #3F3F3F",
"G  c gray25",
"H  c #414141",
"J  c gray26",
"K  c #434343",
"L  c #444444",
"P  c gray27",
"I  c #464646",
"U  c gray28",
"Y  c #484848",
"T  c #494949",
"R  c gray29",
"E  c #4B4B4B",
"W  c #4C4C4C",
"Q  c gray30",
"!  c #4E4E4E",
"~  c gray31",
"^  c #505050",
"/  c #515151",
"(  c gray32",
")  c #535353",
"_  c gray33",
"`  c #555555",
"'  c #565656",
"]  c gray34",
"[  c #585858",
"{  c gray35",
"}  c #5A5A5A",
"|  c #5B5B5B",
" . c gray36",
".. c #5D5D5D",
"X. c gray37",
"o. c #5F5F5F",
"O. c #606060",
"+. c gray38",
"@. c #626262",
"#. c gray39",
"$. c #646464",
"%. c #656565",
"&. c gray40",
"*. c #676767",
"=. c #686868",
"-. c DimGray",
";. c #6A6A6A",
":. c gray42",
">. c #6C6C6C",
",. c #6D6D6D",
"<. c gray43",
"1. c #6F6F6F",
"2. c gray44",
"3. c #717171",
"4. c #727272",
"5. c gray45",
"6. c #747474",
"7. c gray46",
"8. c #767676",
"9. c #777777",
"0. c gray47",
"q. c #797979",
"w. c gray48",
"e. c #7B7B7B",
"r. c #7C7C7C",
"t. c gray49",
"y. c #7E7E7E",
"u. c gray50",
"i. c #808080",
"p. c #818181",
"a. c gray51",
"s. c #838383",
"d. c #848484",
"f. c gray52",
"g. c #868686",
"h. c gray53",
"j. c #888888",
"k. c #898989",
"l. c gray54",
"z. c #8B8B8B",
"x. c gray55",
"c. c #8D8D8D",
"v. c #8E8E8E",
"b. c gray56",
"n. c #909090",
"m. c gray57",
"M. c #929292",
"N. c #939393",
"B. c gray58",
"V. c #959595",
"C. c gray59",
"Z. c #979797",
"A. c #989898",
"S. c gray60",
"D. c #9A9A9A",
"F. c #9B9B9B",
"G. c gray61",
"H. c #9D9D9D",
"J. c gray62",
"K. c #9F9F9F",
"L. c #A0A0A0",
"P. c gray63",
"I. c #A2A2A2",
"U. c gray64",
"Y. c #A4A4A4",
"T. c #A5A5A5",
"R. c gray65",
"E. c #A7A7A7",
"W. c gray66",
"Q. c #A9A9A9",
"!. c #AAAAAA",
"~. c gray67",
"^. c #ACACAC",
"/. c gray68",
"(. c #AEAEAE",
"). c gray69",
"_. c #B1B1B1",
"`. c #B2B2B2",
"'. c gray70",
"]. c #B4B4B4",
"[. c gray71",
"{. c #B6B6B6",
"}. c #B7B7B7",
"|. c gray72",
" X c #B9B9B9",
".X c gray73",
"XX c #BBBBBB",
"oX c #BCBCBC",
"OX c gray74",
"+X c gray",
"@X c #C0C0C0",
"#X c gray76",
"$X c #C3C3C3",
"%X c gray77",
"&X c #C5C5C5",
"*X c #C6C6C6",
"=X c gray78",
"-X c #C8C8C8",
";X c gray79",
":X c #CACACA",
">X c #CBCBCB",
",X c gray80",
"<X c #CDCDCD",
"1X c gray81",
"2X c #D0D0D0",
"3X c gray82",
"4X c #D2D2D2",
"5X c LightGray",
"6X c gray83",
"7X c #D5D5D5",
"8X c gray84",
"9X c #D7D7D7",
"0X c gray85",
"qX c #DADADA",
"wX c gray86",
"eX c gainsboro",
"rX c #DDDDDD",
"tX c gray87",
"yX c #DFDFDF",
"uX c gray88",
"iX c #E1E1E1",
"pX c #E2E2E2",
"aX c gray89",
"sX c #E4E4E4",
"dX c gray90",
"fX c #E6E6E6",
"gX c gray91",
"hX c #E9E9E9",
"jX c #EAEAEA",
"kX c gray92",
"lX c #ECECEC",
"zX c gray93",
"xX c #EEEEEE",
"cX c #EFEFEF",
"vX c gray94",
"bX c #F1F1F1",
"nX c #F3F3F3",
"mX c #F6F6F6",
"MX c gray98",
"NX c gray99",
"BX c #FEFEFE",
/* pixels */
"    O     O   O         =       O           $                 O                       O     O               $   O       ",
"k i 0 4 0 i i i 1 f 0 i 8 8 f f 0 r r r 1 O = 4 4 4 8 r i r i i 0 8 4 8 0 0 8 8 0 r 4 1 0 0 4 1 1 1 4 1 8 f r k i f c c ",
"y.9.,.#.5.,.i.y.Q y.*.9.,. .,.-.( ( } } Y k f L `  .5.x.n.x.D.h.y.h.-.}  .` ( L  .,.` Y } *.Y } J L Q ,.w.5.*.Y.}.G.n.P.",
"*.,.} ` ,.*.,.w.*.*.( } 5.*.,.m ( L `  .( C r J ( ,.y.P./.'.@XQ.G.'.y.#.*. . .( Y } Q J J ` c ( f } ( *.9.5.#.h. XP.x.n.",
"*.,.L Y ,.,. .9.y.-.9.*.( } 9. .#.}  .} #.` F J *.x.P.'.,XrXsX0X-X=Xi.-.,. . .} Q Q ` ` L ` C Y J }  .#.h.x.*.w.D.Y.'./.",
",.*.L Q #.*.( i.h.i.,. .*.5.( w.w.w.,.} ` *.` L #.D.OX-XrXzXjXjXMX2Xn.w.9.` Q (  .Q Q ` J ( F J ( F  .#.w.h.*.n.n.B.Y.OX",
"5.`  . .` ( ` x.} y.,.Q ` C   } 5.9.-.} `  .,.*.5.G.0XrX0XiX8XiXBXrX/.x.w.#.` ( #.` ( Q L Y Y J ( ( ,.,.` 9.w.B.B.h.i.n.",
"5.m ` ` Y J ( y.9.y.x.-.` 0   C ` } ` *.} ` y.x.x.Y.sXrXOX X X,XzXnX0XD.9.-. .Q Y ` } ` Q Y Q F Q  .Q y.( *.D.G.Y.P.x.w.",
"} L ` Y Q ` Q 9.w. .} w. .1   i -.Q ` ` -.` w.Y. XrXrXQ.'.Y.}.@X2XnXzX Xl.#. .( L L  .} J Q *.Q Q Y *.w.,.} Q.x.x.'.x.i.",
"} } Q J  .} ( i.5.#.c Q *.8   8 } Y `  .` } -./.2XzX8XG.x.( Y Q.-X,X0XOXx.-.5. .F C ` #.F F }  .Y ` 9.,.*.i.G.l.B.OXP.D.",
"#.-.*.J } *.-.y.,.,.` J *.#.1   *.` } ` Y  .*.'.nXjXOXl.$ $   i G.OX8XOXn.,.,.} ( F J ( L L } ( Q -.,.5.5.n.P.i.x.OX/.D.",
"*. .#.C Y *.w.G.l.*.-.` ( *.C 8  .( ` Y (  . .i.iXjX=Xm O O =   J Q.rX XG.y.,.*.Q Y L L c J *.}  .5.*.w.w.B.Y.y.h.OX/.n.",
" .( Q c `  .Q h.i.-.*.-.Y Q *.k Q #. .( #.-.w.n./.2XY.  =     O 1 D.sX@XD.5. .Q Q ` ( J f k } Q -.*.w.*.} n.D.y.-.P.Y.h.",
" .Q ( F ` *.Y  .,.,.5.-.Q } *.J k #.( ( Q *.l. X X@Xw.$         O w.iXiX/.i.w. .} } ( } F c Q Y ,.-.,.*.Q 5.n.w.5.n.D.h.",
"5.#.Q ( J #.5.5.i.( -.#.Y Q L *.r Q `  .-.5.x.OX-X=X`   $   O     -.8XsX/.w.,.Q Y ` ` -.( m } #.*.9.Q 9. .,.n.w.y.5.i.w.",
",.*.J -.Q c J *.5.} 9.,.Y Q Q } m C Y L 5.,.y.Q.rX-XJ O   O   O   5.rXsX=Xx.w.*.*.` J  .} L ` J  .y.` 5.,.G.l.5.l.,.l.G.",
"y.*.` 9.*.} L  .,.} 5.*.#.} C Y J k Q L } 5.9.D.8X,XL $         O 9.8X2X-XP.,.-. .` J Q #.} Y Q ` 9.#.#.y.P.n.,.-.-.G.( ",
"i.9.` -.#.-.Q ( #.9.*.-.` Y f C Q f ` L } *.y.x.OX8X*.    O   O   n.-XOX XB.*.Q }  .Q J (  .} Q ( ,.,.5.n.B./.h.Q -.l.k ",
" .*. .` ` } ` ( ,.5.*.-.Q ( F f ( k `  .} #.w.l.'.8Xx.O O     O 4 OXsX,XB.5.,.#.Y  .` J Y *.,.#.( -.*.l.D.Y.=XG.-.x.x.L ",
"*.5.w.` *.( #.-.w.#.5.} ` -.Y c Y J C -.L ` *.x.Q.-XP.i   $ 1   Q }.sXnXY.#.*.Y Q ( } ` Q } *.-.F  .5.G.n.D.@X}.x.G.i.,.",
"l.,.#.} y.,.,.*.,.9.-.J } -.C L ( ` 8 } L Q } x.Q.=XY.h.1   O 4 x.@XnXBX=X9.*.` } ( `  .( L Q #.Y } y.y.x.h.}.Q.Q. XB.n.",
"*.*.5.n.y.-.#.9.5.9.( Y Q #.L L ` #.f L #.` ` y.'.sX-X XB.J m l.G.8XjX2X X,.( ,. .} ` ( Q L L ( 5.-.,.-.h.h.P.P./.-XY.G.",
"y.5.y.P.B.i.*.} y. .Y } F } ` C ( } Y m ,.} ` ,.Q.sXjXOXrXY.n.}. XjX2X/.'.h.}  .#. .` ( ` ` ( ( ,.y.,.9.w.,.n. X/.-X}./.",
"5. .i.h.i. .*.} w.( *.Q C Y J J ( ` *.r ( } ( w.Y.Y.zXmXl. .,.n.rXzXY.i.i.y.#.Q *.*.} ` -.-.} } *.w.*.*.l.} B.OXB.}. X'.",
",.( Q -.5.` -.,.*.*.L L L L ( J ( Q *.C Q ` -.#.h.l.rXQ.` Q 5.5.D.2X'.9.Q } 5.( `  .#.-.} ` *. .Q 5.h.} x.-.D.=XQ.B.P.n.",
"5.#.#.*.5.9.9.Y #. .` L Y F Y Y ( ( #.J C } ` 5.} B.Y.Y J k Q -.5.n.G.,.L Q }  . .L L (  .#. .-.#.*.h.h.l.` 9.'.,XY.P.D.",
"-.} 9.,.5.,.` (  .`  .F Y F L Q Q ` } L k *.Y 9.5.x.-.k c 4 c ( Q *.h.-.L m F #.` Y L F } -.Q } ,.,.x.Y.h.,. .w.}.x.P.Y.",
"y.,.*.-.y.#.Q Y ` ( } c Q J ( Q ` ` ( ` k  .Q *.n.9.k f $   $ 1 c } ,. .Y r f ( L ` Y c ` ,.} ,.,.-.h.x.w.B.i.l.P.i.P./.",
"J h. .#.9.Y  .` Q Q L m ` F } ` } } } #.f L } ` n.y.k =   O   O 4 Q #.L Q c r J Q } J f L ` ` i.-.-.h.n.n.D.l.D.OXl.D.P.",
"k  .} Q ,.-.` L L Y F Q #.F ( *.` ( }  .m f #.} -.#.f             c -.m L Y r C L  .Y k F Q ( ,.,.w.x.n.P.x.-.-.Y.w.h.i.",
"k Y n.-.#.*.F Q Y ` J `  .( Q #.( J ( } Y r ` *.*.L 0   $   O     0 -.m C Q c m C ` #.F J #.#.,.5.5.y.w.l.h.w.-.P.h.D.n.",
"0 Y n.i. .` } Y } *.L Q ( *.Y }  .F Q ( #.i J *.5. .1   O     O   4 } C k J Q F J Y ,.L F } Q 5.*.*.9.y.y.9.l.l.Y.l.n.l.",
"i m w.5.#.` ` C `  .( Y ( J } ( Q L ( ( ` m C  .` Q O     O   O   f  .0 m J J J F Y ` #.Y Y Q ,.-.( 5.h.w.w.9.l.Y.l.i.5.",
"r r Q 9. .( Y J } Q ` *. .*.Y ( Q L J L ( ` 4 `  .C = O $       $ ` F L J c c C C F J } ` ` Y ` 9.` *.,. .h.n.h.w.y.n.i.",
"0 8 k 5.` L J Q ( #.Y ` ( *.` m ` L ( Q f ` c ( } } 4 O   =   O 0 J Y k Q J 0 C C c C ` #.*.} `  .Y  .i.5.9.i.i.-.9.h. .",
"4 f f } ` L Y #.*.*.L Y ` Q } F c ` Q C m J ( ` (  .m     O     C Y #.c ( c k L C k c ` } }  .#.} ( } ,.i.*.9.n.9.w.i.C ",
"$ f c J ,.` (  . .` ( J Y  .` Q C  .( Y Q J ( c } Y ( k         ,. .L L J L f k L C C ( } Q } -.#. . .( h.i.x.h.h.y.n.F ",
"O 4 i m w. .( ` ( -.( L m ,.*.` ( J Y ` m m c $ ( `  .L   $   1  .w.} ( r F m m ( L C Y #.( #.,.} ( -.} i.n.G.-.i.y.l.C ",
"$ = 8 f (  .} ` *.y.Q #.Q #.-.} ( ( Q Y C Q C F C L ,.c       O #.B.C ( C J  .m L ( F C ` ( *.,. .( ,.#.9.h.x.5.y.w.-.f ",
"4 1 4 0 0 }  .#.} ,.*.Q Y ,. .L Q L Q F i Y Y i m k 5.*.  $     i.w.r Y J ( c L Y *.Y c Q Q ,.5.} #.5.#.5.x.w.9.i.i.( i ",
"= 0 4 f 4 c } Q Q 5.,.Y L ` ( L Y L Y m Q m c i C r *.`   O O   -.,.F *.m m c Y f Q  .c ` #.#.,.Y ,.y.9.B.l.,.9.i.h.m f ",
"1 k r k r $ J } ( ,.,.` ( ` ( Y Y Y J f Y } ` L f L 5.(   = $ 1 5.n.f J } ` i L Q F } F ( L  .*.#.#.w.y.h.5.,.5.l. .f c ",
"0 = i = f k = r ,.w.,. .} Q C c i m Y ( *.` m f i k  .}     $ 1 9.y.r F i ( r C L Y *.Q ` L } ,.` ,.,.y.D.,.` -.i.F i k ",
"m O r i 1 i J r 0 c J C C C J ( J J Y k C i r J m 0 *.,.8     4 w.x.L } c ( J L F ( ` ` Y ` } w.( ( 5.D.D.*.}  .} c r r ",
"c 0 0 c 8 1 f k c J C k f i f k i m L 8 k r 0 k i r -. .k O   L } B.f 0 F i f L m i k ` L Q ( Q ( } 5.y.B.n.5.C f r 8 0 ",
"i c = = i f   = 4 r 0 8 k C m m c i f $ k r 1 r m 4 Q Q i O = ( (  .f i r c 4 Q C c J (  .`  .Y F } 9.i.P.n.( i k 8 = 4 ",
"i C 8 4 = 8 L 0 O = = $ 1 8 8 r Y k 8 $ 0 r $ F Y r c L 1   O i J i J ` f Y 4 L k C C c Q L ` ` L 0 -.B.9.F f F c 1 = = ",
"4 m m $ O   8 c F f $ 1 C L C k r k 0 = $ r O F 1 c 8 f   O O 1 c c k k } k 0 Q r 8 i ` } Q ( Q ( i m 0 f m r i r   8 1 ",
"0 0 c 4   = $ $ 4   1 C k i c f k r c = O i = F   0 k O O       4 ( O r F m 0 L i 1 k m i c m c f Y C F k f i i 8     4 ",
"1 0 k k 0 O O 8 1   i 1 1 = = $ 0 f k 4 $ f 4 1 8 O m i $   = $ L c   0 r f 8 F C 4 r k k m k i 8 8 m k f r $ 0 8 $ = r ",
"= 0 8 c c $   = $ 8 8 $   8   O = 4 8 8 O 1 0 = 4 1 8 J $ = $ k L 4 = $ k 1 r Y r 1 f C F F m L i 0 8 1 8 $ 4 i O O 1 0 ",
"O $ $ f m 4 O   $ 1 $   8 r c i r 4 = r 1   4 r $ O O 0 1     c 4 O O 1 m O m F $ = i k r 4 $ 4 F C r 4 4   = O   = 8 0 ",
"O   $ i i 0 8 8 8 $ $ r c m Y J L i 4 8 0 = O 4 8 $ 1 8 4 $ 4 0       r $ 0 C 1 i k m c C c 0 8 = O 1 =   1   O = 4 r r ",
"i     = 1 8 k m 0 O 8 c r k r m r i r $ 8 4     O 4   O 1 1 O =   $ 8 4   k i 1 1 4 1 = 8 i 0 4 i 8 8 0 O $ O 8 O 0 f f ",
"k 0     O = r r $ O r $ =     =   = 0 O $ = $     1 $   r $ = 4   4 r   4 0 8 r 4 0 8 1 $ O O O O 1 O 8 $   1 = $ r k i ",
"  f 4 = =   1   O f 8 O         $   $ $ O   =   O     =     4 =   $ O   8 4 8 1 $ 1 0 i 0 4 4 = O   =     $ =   4 8 = O ",
"  8 r 1     O   i 4     O             $ = = $   O $   O 1     4 4 1 O O = $ O       O = 8 r 4   $ $ $ O   O O = $ O     ",
"  = 4 1 = = 4 4 0 =     O             O $ $ O     $   O = O   1 = $ O O $ = $   O $ O O = 8 1 $ O $ $ O O   O $ $ O     ",
"    O $ = $ $ 4 = $                     O O   O   O     O     $ O     O $ $ $ O O O O     O O $   O O O                 ",
"O               O             O                   O                                                 O O O               "
};
