/* XPM */
static char *fce35beec5ac4bc1f4966d0c664466ae89Cf7wcBqMBjjYul[] = {
/* columns rows colors chars-per-pixel */
"60 60 144 2 ",
"   c #5C5646",
".  c #5D5747",
"X  c #5D5845",
"o  c #5F5A47",
"O  c #5E5848",
"+  c #5F5949",
"@  c #5F594B",
"#  c #5F594D",
"$  c #605A4A",
"%  c #615B4B",
"&  c #635E4B",
"*  c #605A4C",
"=  c #615B4D",
"-  c #605A4E",
";  c #625C4C",
":  c #635C4C",
">  c #635D4D",
",  c #625C4E",
"<  c #635D4F",
"1  c #655E4C",
"2  c #645F4C",
"3  c #665F4D",
"4  c #645C4F",
"5  c #645E4E",
"6  c #655E4E",
"7  c #655F4F",
"8  c #665F4F",
"9  c #635D51",
"0  c #645E50",
"q  c #655F51",
"w  c #665E51",
"e  c #645E52",
"r  c #655F53",
"t  c #675F52",
"y  c #665F55",
"u  c #65604D",
"i  c #66614E",
"p  c #67624F",
"a  c #666050",
"s  c #676050",
"d  c #676151",
"f  c #666052",
"g  c #676153",
"h  c #666054",
"j  c #676155",
"k  c #686151",
"l  c #696250",
"z  c #686350",
"x  c #6A6351",
"c  c #686053",
"v  c #686252",
"b  c #696252",
"n  c #696353",
"m  c #6A6353",
"M  c #696451",
"N  c #6B6452",
"B  c #6A6552",
"V  c #6B6653",
"C  c #6C6553",
"Z  c #696154",
"A  c #686254",
"S  c #696355",
"D  c #6A6255",
"F  c #686256",
"G  c #696357",
"H  c #6B6356",
"J  c #6A6454",
"K  c #6B6454",
"L  c #6B6555",
"P  c #6A6456",
"I  c #6B6557",
"U  c #6C6555",
"Y  c #6D6654",
"T  c #6C6754",
"R  c #6E6755",
"E  c #6C6457",
"W  c #6C6656",
"Q  c #6D6656",
"!  c #6D6757",
"~  c #6E6757",
"^  c #6D6855",
"/  c #6F6855",
"(  c #6F6856",
")  c #6E6956",
"_  c #6F6A57",
"`  c #6A6458",
"'  c #6B6559",
"]  c #6D6558",
"[  c #6C6658",
"{  c #6D6759",
"}  c #6C665A",
"|  c #6D675B",
" . c #6E6858",
".. c #6F6858",
"X. c #6F6959",
"o. c #6E685A",
"O. c #6F695B",
"+. c #6E685C",
"@. c #6F695D",
"#. c #706956",
"$. c #706957",
"%. c #716A57",
"&. c #706B57",
"*. c #706959",
"=. c #716A58",
"-. c #706B58",
";. c #726B58",
":. c #726B59",
">. c #706A5A",
",. c #716A5A",
"<. c #716B5B",
"1. c #726B5B",
"2. c #716C59",
"3. c #736C59",
"4. c #726D59",
"5. c #736C5A",
"6. c #726D5A",
"7. c #736E5A",
"8. c #736E5B",
"9. c #746D5A",
"0. c #746D5B",
"q. c #756E5B",
"w. c #71695C",
"e. c #706A5C",
"r. c #716B5D",
"t. c #726A5D",
"y. c #726C5C",
"u. c #736C5C",
"i. c #736D5D",
"p. c #726C5E",
"a. c #736D5F",
"s. c #746D5D",
"d. c #756E5C",
"f. c #746F5C",
"g. c #746E5E",
"h. c #756E5E",
"j. c #756F5F",
"k. c #766F5F",
"l. c #75705C",
"z. c #75705D",
"x. c #76715E",
"c. c #746E60",
"v. c #756F61",
"b. c #767060",
/* pixels */
"2.X.i.v X.L e.} X.e.X.L X.X.W X.X.<.g <.X.X.g 2.2.N p x.) i ) &.<.s ^ &.&.&.#.3.x 8 j.<.v <.v W N q.) ) i j.) N i 2.i.g ",
") L W 7 v q g q ) W v v X.<.W <.<.W 7 W L L 7 X.i.v g i.X.g X.2.<.8 ) 2.&.3.3.3.t 4 W W 7 v 7 v 7 <.<.W 7 2.X.L i 2._ g ",
"x.i.j.W <.} e.L L L i g X.i.X.<.i.<.7 N v N 7 X.i.W L i.2.L j.j.} 7 W <.;.j.&.3.<.W j.j.W <.W <.g i.i.<.v i.2.<.L z.i.N ",
"i > 7 O 7 > q - L S 7 i <.j.<.i.i.X.> L v v % <.7 O O L v O g > x & W <.#.3.#.%.7 % v 7 . % 7 7 X L g 7 X v g > @ v g # ",
"&.W X.v <.} e.L W L g g i.i.O.X.X.X.7 W W L > W X.S S c.e.g W g } 7 W <.<.j.;.<.W v j.&.v W W <.g X.N } L c.X.L A _ { g ",
"2.<.e.N <.X.X.j <.<.L N <.c.2.2.i.X.S 2.<.X.g <.X.L v e.<.g L > } v e.e.w.d.3.3.W v e.<.v <.<.t.> S > v g i.} L a } A 9 ",
"2.X.) v <.} X.r X.X.N g X.X.L X.W W i X.X.W v <.c.O.L c.e.} O.S } q w.D x <.W W D 7 <.W v W W &.S } S } S c.e.} L { L j ",
"v 7 g % L j ` > i g > O g > % > g 7 . g 7 g % N } q % j q > j > v - v q : x 7 7 7 % V v - 7 7 v > g > g - j > 7 > g 9 # ",
"2.i.<.g X.} X.> i.X.g N i.c.} } <.L v W q.W i W X.N N _ x.<.&.q.e.S W v X.S S S L W <.<.S W <.X.g ) l.2.2.z.2.V N _ _ L ",
"2.) <.7 L L } 9 x.j.) X.z.@.L } j.<.N W j.} v <.g g i W &.&./ &.} q S - S 9 g q v v X.<.W X.j.j.% ^ &._ ) _ ) N V _ _ A ",
") } X.i W L } g N L g g ) L j A W L 7 g W v 7 D N i g ) d.3.;.q.i.S } q } v } W i v W W 7 v W N i ) l.2.l.l.2.W p W { j ",
"V v v % v j L - p v > > g g a L g 7 7 v W 7 % v N g g ) 3.&.#.&.} q S > } q L S g v W v > 7 v t u N 2.&.&.2._ N i v v g ",
"q.) ) i <.e.i.q x.i.L L N j g } i S N X.2.} V <.e.W W 3.b.t.3.3.} v S q L q W } v W <.W x } j.<.i X.i.2.i.i.i.W N L L A ",
"j.<.X.g i.c.i.g l.i.L g L A A O.q N L X.i.<.W W e.} } <.d.t.3.3.e.L } v O.S <.e.v v X.<.v W <.&.g X.i.@.i.i.e.) A A A j ",
"N g N O g g g % N N u u L A j { 7 g g g W W v S W q 7 q D t t x S - g q S q S S 7 v W L 7 7 W v % g N i i g g > A j g g ",
"V ) i.g L g } g V L g g W L g A i L v i v v s W } S q D W x D #.S q S q } q } W 7 7 L L v v <.<.g L } A j L L j { A g v ",
"W W } - r 9 S q 2.i.L v i.} q S > v 7 g 7 v s <.<.W W j.<.S W j.W 7 v 7 v v <.<.v L <.<.v v W v g L X.X.v g 7 v g v q > ",
"<.W <.S } } O.` 2.i.L W x.i.} O.L <.L <.W } V j.2.D W j.2.W W j.j.v W W W v <.<.W W <.<.W W <.W N X.i.W N W W v v W S g ",
"7 7 i % S q q - i 7 O O L j # g % i % v 7 7 . g q % % s v % % v v % v 7 7 . t 7 % > 7 7 7 7 v 7 O g v > % g v % 7 v v 7 ",
"<.W } S e.X.e.q <.<.v g i.X.q L 7 W v <.W &.v <.<.v v <.<.W v <.W s <.} &.v <.<.v v <.W v W <.<.i X.i.v N i.i.v i W v 9 ",
"2.^ ) v i.} X.q &.i.S v i.X.q L 7 g 7 <.<.W v <.<.W v <.W v W W g 7 W W ) v <.X.v v <.X.g i W S > ) X.g g <.<.v W j.<.S ",
"j.) ) v 2.W X.q 2.2.L N c.O.j } v W 7 j.<.<.v <.<.W W W <.W v <.<.v <.&.<.v i.<.v <.i.j.S W <.W g X.<.L L <.2.W g <.W q ",
"N % & X g 7 g % 7 g O O L q O > 7 7 . v 7 7 . 7 v % % 7 7 7 7 7 i % q > 7 % v g 7 % 7 7 % 7 v 7 O g v 7 % 7 7 7 O N N - ",
"2.) &.N 2.<.j.) 2.i.L L b.e.L } <.<.v <.X.W v j.<.W W X.j.<.<.j.<.g W v W v <.X.W v v v V <.j.W N W <.W v v L W g j.<.q ",
"l._ X.i ) W x.) X.j.L S i.e.S } 2.<.v j.<.} q e.<.s & ) q.&.&.q.<.7 v v L 7 <.<.v v v v g L <.<.L X.<.X.v g g N v i.<.v ",
") L L > X.) j.2.2.i.N i ) } q L ) W 7 } W } q <.) v s ) q.<.&.3.j.v X.v W 7 X.X.L v W W i N X.W > L X.N g N L v v X.W S ",
"L g L i X.X.c.<._ 2.g > L } > S s s . v v v % j v 7 v &.3.3.&.;.L > v 7 g % v v % 7 S v - 7 g 7 . i g - % g N > v v v q ",
"X.L ) g <.X.j.<.2.j.N g X.X.j } q.2.v 2.e.e.j L 7 v X.<.3.3.3.#.<.v <.<.<.v q.i.v W 2.<.W W i.2.g <.2.L N i.i.g v v 7 v ",
"X.v W g <.} i.W 2.i.L v i.i.j } 2.2.j i.j.j.g } S S W X.w.3.3.w.<.v <.i.<.v j.j.W ) j.<.L X.j.i.g <.i.L L i.i.L W v v S ",
"S g L 9 L L X.S i L g i X.} > g N N O N v } > S g q S N x v x #.v % v v v % v v 7 7 v g > > v g O g L > > L L > v v v q ",
"} L } > L j } g p W i > L } 9 q ) X.g v v } S e.L q q D W 8 7 x v 7 W L W % W W v v W W v L W L 7 L ) L g L L N g v v 7 ",
"b.e.X.g } S L q 2.j.} v i.i.L X.2.i.i g 7 S r i.e.S D j.t.x t w.W 7 <.<.W v <.j.v v <.j.i.i.b.X.v ) X.) g i g g v <.e.S ",
"e.O.c.j e.e.e.j <.<.W W i.<.W ) 2.e.v <.W } v <.j.v W <.<.W W j.<.v <.<.<.7 <.j.v 7 W <.<.q.3.W N ) ) ) ) ) ) L ) <.) L ",
"L q S # S q S > 7 7 O % g 7 % - 7 g % i 7 i % S v % % v v % % v 7 % v v v % v W v v W j.;.3.d.&.> q g i > 7 i g q g g > ",
"X.S L j X.j } L X.X.W L <.<.V W v X.v W v W v j.<.S V <.<.W W <.W v <.W <.7 <.<.7 v <.<.Y Y 3.#.g L } L L } } L v W W v ",
"} q g q W - q g X.<.L L <.<.L v > N g v 7 v v W <.v v <.<.v v <.W 7 v v v 7 W v W W j.j.=.&.j.3.q q j q q g g g q q g 7 ",
"c.L } W e.v L } <.<.L W <.<.v W L <.L W v X.L i.<.W v e.j.V W j.i.v W X.<.v <.W W v W #.x / #.x S W } L } S W W W } } S ",
"} q g - S q q - 7 g % % 7 g 7 7 7 v O v 7 g O v v % % v t % % v v . 7 7 7 . v 7 7 % t t 8 8 3 8 - q v g q q 7 - 7 g q 9 ",
"X.S } g i.O.e.g j.<.W S 2.e.<.<.<.W q 2.<.X.g 2.<.W S <.<.W W e.W v <.W <.7 <.<.W v <.<.x #.3.;.i W <.<.<.<.<.W ` } } ` ",
"S j S 7 e.i.e.9 <.<.v v X.<.X.q.j.W 7 i.i.<.g i.3.W W <.2.W W j.<.v j.<.<.v j.j.W W j.t.x x 3.3.7 N &.2.2.2.<.) q j j r ",
"X.W W q X.) ) g W } v v &.2.2.2.j.<.> W N L 9 X.W W L v S v W W V 7 W W } i X.W q v } W q t } D % V 2.<.&.&.&.V W v v S ",
"g i g O L g N O S v 7 7 ) 2.2.q.2.W > L S L > } 7 7 v v W v v i 7 % v g v O g g q q S L 4 t D D 7 W 2.<.<.<.<.v v 7 7 q ",
"i.<.2.L <.<.i.g <.<.W L 2.l.2.2.q.X.v <.X.O.j i.<.v v 7 v v W <.<.v i.<.2.W i.i.v S e.} y ] t.t.7 <.j.e.2.j.<.W v v v q ",
"e.) X.g <.X._ g j.i.W W 2.2.) ) &.<.7 i.X.O.S e.j.W v 7 7 v <.c.<.v <.W <.v i.2.S W e.i.#.#.j.3.q W <.<.<.e.W v v W S q ",
"W v N - L v L @ p N u % L L v v v v % v v S - S v 7 v W W v i v S % v v N > N v 7 t W W 8 t #.x 7 v S v v S v q 7 v v g ",
"<.W W 7 X.L W > V V u u S L 7 v V S % V W S 7 } W v 7 W W g v W &.7 W D } 7 L S i v W x 4 8 W D q S W v 7 v S q 7 v v q ",
"W W W 7 X.L ) u x.l.) N W W S S 2.<.q <.<.<.S e.j.W v v v v W j.<.v W X.X.7 L i W W <.<.D #.3.<.q } j.} S S ` S v <.<.v ",
"<.W <.i i._ @.N _ _ N v X.X.} W 2.<.v <.<.X.v e.<.W v <.<.L W <.<.v i.<.j.L W v N W <.3.V #.t.3.q <.c.e.S S W W W <.e.S ",
"V $ i O S q > 9 q g q r r j r r q v 7 g v 7 7 N q - > q g - - S 7 % W v v % s 7 i 7 v v - 7 v 7 7 q q W 7 S 7 S v 7 % 7 ",
"2.N 2.g <.e.X.} } L L S ` } } } v S v W <.v v <.X.} } X.O.L W i.W 7 } v W 7 <.<.v W <.W v W <.W q S q } q } v } W v v S ",
") W i.> W e.X.q g q q q q r j j q g 7 v W v g W X.S } X.} v S e.<.v <.W } W j.j.g 7 S v s v <.W 7 r q S q S q S % 7 7 - ",
"x.X.b.v <.i.} j W L } L S } | | W W W ) e.W L 2.<.W W i.i.L } j.v g &.W &.v ) W v v <.<.W ) j.X.} X.} <.S e.S S W <.W S ",
"L - g O v g % % g 7 > 9 > > > j % > 7 7 v 7 O v q % % 7 7 % % v g % v 7 v 7 N v % % v i > 7 v 7 - q - q . S 9 - 7 7 7 % ",
"e.q X.S j.<.<.q.2.X.) L } } } } v W W <.j.W W i.2.W v <.j.<.<.j.) 7 N 7 v t <.<.W W <.) v W i.X.v } v } S c.e.} W <.<.g ",
"} > L > ) <.2._ ) ) L g g g j L v v v W <.W v <.2.L g ) t.3.<.<.i.v W g W v j.i.v g L L g v L v 7 S q S v e.X.} W <.e.D ",
"O.L X.- L 2.x.) i.2.) L N v S L v W L W <.v 7 W 2.s & V j.q.&.<.<.v W v W 7 X.v v v W W g N <.W q } S W q e.} v 7 W X.q ",
"} > S 7 <.) 2.2.&.) g % L g > j v 7 % 7 W v 7 g > q W <.3.3.3.w.X.q L q S q S - v v L v 7 7 v 7 - S S q 7 S S q 7 } S - ",
"} 9 L g 2.<.2.j.l.x.W W i.e.S X.j.X.W W j.) v L q S } <.j.t.3.3.O.j } q L g } q W W X.<.W W i.<.L <.e.} } e.e.} D t.e.v ",
"X.q } g <.X.) X.X.2.N L i.O.L } <.<.L W <.W v N S S W } <.<.#.<.} g L j L g } q L v X.X.v X.j.e.S e.<.W S e.<.} D e.<.S ",
"} > g - L g g g g g > > } L - j v g 7 7 W g > v q q q v t S v S L - S q S g W q i g N v 7 7 L v - S S q q S S q q W S - "
};
