/* XPM */
static char *result[] = {
/* columns rows colors chars-per-pixel */
"64 64 7 1 ",
"  c black",
". c #8F563B",
"X c #D9A066",
"o c #5B6EE1",
"O c #639BFF",
"+ c #5FCDE4",
"@ c None",
/* pixels */
"@@@@@@@@@@@@@@@O@@.@@@@@@O@@@@@@@O@@.OOOO@ @@@...O@@.@@@@.@@@@@@",
"@@@@@@@@@@@@@@@@@@@.@@@@O@@@.@O@@@@@OOOO@.@@.@.@@.@@.O@@@@@.@@@@",
"@@@@@@@@@@@@@@@@@.@.O@@.O@.@.@O.@..@@@@OO@OO.@..@@@..@@@..@.@@@@",
"@@@@@@@@@@O@.O@ @O.O.OO@@X@O@@@@@O.@OO@O@@@ @@.O@.@.O.@@@@@@.@@@",
"@@@@@@@@@.@.@@@OO@@@@.@OO@O@OOOO. @ O@.OO OO@ .OO@..@@O..O..@@@@",
"@@@@@@@@@@@@OO. OOO@@O.OOO.@@O@O OO.@@OOOOO.O@.@....O.@@.@@.@..@",
"@@@@@@@@@@@@@@@.OOOO..OOOOO@OOOOOO@OOOO.Oo@o@O....@O@.@ @..@@@@@",
"@@@ @@@@ @@.@@.@OOOOOO@OOOOO@@OOOOOOOOOOOo@.O@OO@O @@@...  .@@@@",
"@@@@@@ @.@O@.O O@O@OOO@OO.OOOOO.OOOOO.@O.O ..O.O....@..@@..@@..@",
"@@@@@@@@@@.@@O ....@.@O.@Oo@@O@OO.OOOOOO@O..O......@.O@@...@.@.@",
"@@@@@@@@@ @@.O.OO@O O.OOOXOO.OOX. OOOO.OOO OO... ...o@..@O@.@.@@",
"@@@@@@@@@@O.@OO@O@@OOOOOO.OOOOOOOOOO @OXOOO.Oo.+O.+o.@O.@...@@@@",
"@@@@@.@@@@@@ O.@.O@OOOOOO.OOOOOOO @X.OOOoOOOO+.O.o..+@O. @@@.@@@",
"@@ @@@@@@@@@ OOOXOXOOOO...OOOOOOOOOOO.OO.OX+OOOO@.....@@@@O @@.@",
"@@@@@@.O@OOO.@ .@@OOOOOOOOOOOOOOOoOoXOOoOoOO+OO+ Oo O..@@.O.@@@@",
"@ @ @@@.O@O@ .OO.@@.X.. OOXOOOOOOOOO@OO+.OOOOOOOo.O O.o@@.@.@.@@",
"@@@@ @@ @@ @O   .@OOO.OOOOOOOOO@OOO++OoO+.OOoO+@++ .   +O@@@@@@@",
"@@@@@O@@@@@O@ O@O.O@OOOO.O. X+OOOOOO+OOXoOOo+@OO oo++@o@.O..@@@@",
"@@@@@@@O@@O@ oO@OOO@ OOOoOOOOOOOOOOOO+++o@+@OO+.++oO@@O.@O.@@@ @",
" @@@@@@@.@XoO oOXXOO@@.OoOOOOO@OOOOO.+ooOO+OX.+.o@.@. @.oo@.@@@@",
"@@@@@@@O@o@@..@ OX X@OOXOOOO+++OO++o++ooO+X+++oOO+O+Ooo.+@.Ooo@@",
"@@@@@@@@O@oo.@O@oO@OOOoOOOOO++OOOOO+@O++O+OoO+++.oo+.@@Oo@o@.@@@",
"@@@@@@@@O@.XXoOOoOOOOX+XOOO++OOO+O+O+++o+++O++o+++++O++oO.@.@@@@",
"@@@@@@OOO@@..@oXXXoXoO+OXOOOoO+++O+X+++O+o+O+++O++oo+@+o@+@+@@@@",
"@@@@@@@X@.OXXO@@@XOOOO+oOOooOOOOO+XOO+++oo+++++@+++++O.@@o+@. @@",
"@@@@@@@@O@oX@XOOOXXO@OOoOOOXO+O+++o+O++++X+O+o+o+++o+@o++.O@+@@@",
"@@@@@O@@@@@.OoOXoOXOOOooO+O++oO+++O+oo++O+++++@++o+oo@o+@@oO@@@@",
"@@@@@@@o@@@@@@ @OX+OOOOOO+OOO++++X+++O+++++O++++++oO+o+++@@+@@@@",
"@@@@@@@@o@oOo@XOXOOOOXOX+O+O++OO++++o++ ++O++++++++ooo+@ o@@+@@@",
"@@@OX@@@@X@oO@OXOX++OX+OO+OOOO+OoO+++O++++oO++++o++++++@o++@@@@+",
"@@@@@@@O@oOXOo OOoXOOOO+O+OO++++++++O+++++++X++++++++@@+@+o++@@o",
"@@@@@@@@Oo@@XOoXXX+OOOoOo++OO++O+O++++++++O+++++++++o+++o++@@@@@",
"@@@@@@@OXoO@Xo@OoXOXoOOOO++OoO++O++++o+++++++++++o+@+@o@o@@@@+X@",
"@@@XO@o@@X@OoOX@XoOOXO+OO+O+o+OO+++o+++O+++o++++++o+X+++@o+o@oo@",
"@X@@@@X@X@oXXoXXOOXOOX++O+++++O+O++++++++++++++++++O++ +ooo++@ o",
"@@@@@@X@@XOXXOXoo+OOO+++++@++++O+O++++++++++++++++++++o@+@o@o@@@",
"@@@@O@@O@O@@oXOOOo+++oX+OO+++++++++O+++O++++++++O++XO+Xo@++o@oo@",
"@@@ @oX@oo@@OOoOoOO++oOOO+++OO++O++o+++++++++++++++@o+++++o+@@@@",
"@X o @@O@o@oX@XoX+oOOoOo++++O++++++++++++++++++++o+++++@@++o+X@+",
"@@@ @@@@@@OooOOO@oOO+oO+OO+++++o++++++++X++++++++ +++Oo+@+o@++@@",
"@@@@@@@X@X@OOXoOOXOOOOX+o+++o++X+++++++++o+++++++@++++X@ +++o+o+",
"@ oOo@Oo@X@X+OoooOXOO+O++X++O+oX+++++++++++++++++o+++o+@+++@+ @@",
"@@@@O@@@O@OXOOOoOOOOOXO+o+o+O+++++XO++++o++o++@++++++@+o@ ++o@@X",
"@ o@OX@X@@OXo@X+O+OOOOo+o+OX+++++X++o++++++++++@+@+oX +@X+X+o+@@",
".@@ @X@XoO o@OXoo+XOoOOO+++O+X+X++++o++OX+++++o++o+oX++X+XX@@@@@",
"@  @@@@@OOXOooOOooOOOOOX+O+O++@O+OOooo+O++OoX @++++@++++++XX@@o+",
"@ @@ X@@@o@oO@ooOoOo+XO+XOO+X+O+o++O@+++++++++++@+++X+++X@@@o@@+",
"o@@@@X@XoooXooOoOoo+XXX+XOOo+++X++Xo+++X++@XX+++@@++o@+++++o@@@@",
"@@@o@@o@O@@ O.ooOooX+O+oXo+o+X+++X ++++@o@+o++o++@o++X+++@@@@@@+",
"@o@@@@o@@O@Xoooooo@OOO+XX+oO+XO++o+XX++XX+X+o+oo+o@oo+@X+@+@+@@+",
"@@@@o@@ @@OoooO @+OoXo+oX++ O +oX+++XX+X@X+++++o++X@++++@@@@@@@X",
" o@@@@@@@@@X@@X O@oX@o+@OX+Xo++o+X +o++++@++@++o@o+@+ +@@X+@@X@@",
"o@ @@@@oooo@Xo@@@XO@XXXoOO+@O@O@X@@o+ X+XX++ooX+o@@@@@@+@@@@@@@@",
"@@@@@@@@@@ooO@ooOXO@@O+++X@Xo+  XX@oo++@+X@X@@+@X+ o@@@@X@@@+@@+",
"@@@@@@oO@@O@o@@Ooo oO@XO @@++ +X@o@++@+XoX++@@X@@+@X+Xo@@XX+@+@@",
"@@@@@@@@@Oo@OOX@@O@XoO++@@o+o+ XX+@Xo@+@@@@o@+XX@ @@ +XX@@@@@@+@",
"@@@@@@@@@@@@o@@@@X@OX@@X @@+oO XXoX@oX+@oXX+@@+@@@@@@@@@@@@+@ @@",
"@@@o@@@@@@o@@@@o@@@+Xo+@ @ X++++@+@@X@@@@@@XX@X@@@@@@@+@@@@@@@@@",
"@@ @@@@@ o@@oo@@o. @@@@@o@ @ X @XX@ o @@@o@o@X+@@@@@@@@@@+@@@@@@",
"@@@@@ @@@ @@@@@@@@@@@@@X@@@ @@@+@@@@+@o@@@@@@ @@ +@@@@ @@@@+@+@@",
"@@@@@@@o@@@..@@@@@@@@@@@@@@+@@@@@@@@X@+@@+++@@ + @ @@@+@@  @@@@@",
"@@@@@@@@@@o@@@@@@@@o@@X@@ @@ @@@@@+X@@@@@@@@@@@ @@ @+@@@@@@@@@@@",
"@@@@@@@@@@@o@@@@@@@@@@@@@@@@X+@@@@+@@@@@@+@@@@@@@@@@@@@@@@@@@@@@",
"@@@@@@@@@@@@@@o@@@@@@@ @@@@@@@@@+@@@@@@@@@@@@@@@@@@@@@@@@@@@@@@@"
};
