/* XPM */
static char *cdd0cab6508a4d5bf27c7eecb62558fbnAOxCzBAtGW2QcA9[] = {
/* columns rows colors chars-per-pixel */
"60 60 237 2 ",
"   c #24061E",
".  c #13152C",
"X  c #1B152B",
"o  c #1D1B2C",
"O  c #191525",
"+  c #1C1B33",
"@  c #181832",
"#  c #0C1128",
"$  c #241B2C",
"%  c #29172A",
"&  c #331B2B",
"*  c #3C1C2E",
"=  c #311628",
"-  c #231C33",
";  c #2B1D33",
":  c #271D39",
">  c #3C1D32",
",  c #371E35",
"<  c #18252C",
"1  c #1D2435",
"2  c #1B263A",
"3  c #242233",
"4  c #2C2234",
"5  c #242A35",
"6  c #2C2C35",
"7  c #25243A",
"8  c #2C243B",
"9  c #2B2A3D",
"0  c #262E3A",
"q  c #332333",
"w  c #3B2533",
"e  c #352B35",
"r  c #3B2B36",
"t  c #33243A",
"y  c #3A253B",
"u  c #322B3D",
"i  c #3A2B3B",
"p  c #2A3B3A",
"a  c #3C343D",
"s  c #353B3D",
"d  c #36353A",
"f  c #33212F",
"g  c #421A32",
"h  c #471B35",
"j  c #411A2F",
"k  c #432439",
"l  c #432C3C",
"z  c #4B2C3C",
"x  c #442636",
"c  c #44333D",
"v  c #46393F",
"b  c #51303D",
"n  c #1E413D",
"m  c #25433C",
"M  c #34403E",
"N  c #2D2B42",
"B  c #292641",
"V  c #342C43",
"C  c #382A44",
"Z  c #2D3C43",
"A  c #2C3545",
"S  c #343444",
"D  c #3A3341",
"F  c #343D42",
"G  c #3C3A45",
"H  c #393548",
"J  c #38394A",
"K  c #432D43",
"L  c #4B2C42",
"P  c #512E42",
"I  c #433444",
"U  c #4C3443",
"Y  c #433B45",
"T  c #4A3C44",
"R  c #443C4B",
"E  c #4C3B4C",
"W  c #473648",
"Q  c #533C4A",
"!  c #563948",
"~  c #4F3C53",
"^  c #633C52",
"/  c #2C4443",
"(  c #2A4845",
")  c #334343",
"_  c #3B4A49",
"`  c #374749",
"'  c #3C4A52",
"]  c #3B5356",
"[  c #33534A",
"{  c #44444B",
"}  c #434C4D",
"|  c #4A4548",
" . c #52434C",
".. c #57474B",
"X. c #474A55",
"o. c #544553",
"O. c #5C4553",
"+. c #534C5A",
"@. c #584A56",
"#. c #445353",
"$. c #4B5456",
"%. c #49575A",
"&. c #555455",
"*. c #5B5354",
"=. c #5B5956",
"-. c #52545C",
";. c #5C555B",
":. c #545C5B",
">. c #5C5B5B",
",. c #555A56",
"<. c #645456",
"1. c #63545B",
"2. c #69545A",
"3. c #635C5C",
"4. c #6A5B5D",
"5. c #655856",
"6. c #674D56",
"7. c #59625D",
"8. c #63615E",
"9. c #6A625E",
"0. c #66675B",
"q. c #4B5763",
"w. c #5D5C61",
"e. c #595666",
"r. c #5F5C71",
"t. c #4A4B66",
"y. c #645D61",
"u. c #6C5C62",
"i. c #6A5866",
"p. c #745C66",
"a. c #675D74",
"s. c #765E73",
"d. c #6B4960",
"f. c #5E6462",
"g. c #5A6769",
"h. c #5E6272",
"j. c #646363",
"k. c #6B6363",
"l. c #6B6966",
"z. c #6B656A",
"x. c #656B69",
"c. c #6C6C6B",
"v. c #646765",
"b. c #71666B",
"n. c #726C6C",
"m. c #746865",
"M. c #6D726D",
"N. c #6E786F",
"B. c #73726E",
"V. c #78776E",
"C. c #6C6372",
"Z. c #6E6D73",
"A. c #696B76",
"S. c #746D73",
"D. c #7A6D74",
"F. c #756E7B",
"G. c #7B6779",
"H. c #6E7372",
"J. c #6D7975",
"K. c #6D7A7A",
"L. c #6B7579",
"P. c #757575",
"I. c #7A7475",
"U. c #757975",
"Y. c #797976",
"T. c #767579",
"R. c #7A757A",
"E. c #757A7A",
"W. c #7B7A7A",
"Q. c #826D7B",
"!. c #81757D",
"~. c #837B7D",
"^. c #817776",
"/. c #7D807D",
"(. c #74817B",
"). c #83817C",
"_. c #776C81",
"`. c #6B7783",
"'. c #7C7B82",
"]. c #797885",
"[. c #836E82",
"{. c #837C83",
"}. c #897D85",
"|. c #857D8A",
" X c #8B7D8B",
".X c #857484",
"XX c #957D8B",
"oX c #897E92",
"OX c #857D92",
"+X c #997C95",
"@X c #7E8284",
"#X c #7D848B",
"$X c #768689",
"%X c #7B8D92",
"&X c #7D8794",
"*X c #7D9198",
"=X c #848184",
"-X c #85838B",
";X c #8C838C",
":X c #8C898E",
">X c #898688",
",X c #93848E",
"<X c #96858C",
"1X c #8C8392",
"2X c #8D8B93",
"3X c #8D8D9B",
"4X c #868996",
"5X c #938593",
"6X c #9B8593",
"7X c #948A94",
"8X c #998A94",
"9X c #948499",
"0X c #948B99",
"qX c #9B8C9A",
"wX c #9B849B",
"eX c #8C939B",
"rX c #87979B",
"tX c #94939B",
"yX c #9B929C",
"uX c #979699",
"iX c #A38B9C",
"pX c #A4869C",
"aX c #A1919D",
"sX c #A09A9E",
"dX c #9D8CA1",
"fX c #879BA3",
"gX c #939CA3",
"hX c #9999A6",
"jX c #A298A2",
"kX c #93A5AB",
"lX c #98A7AA",
"zX c #98ABB2",
"xX c #96B6BA",
"cX c #8EB5B7",
"vX c #A2A3AD",
"bX c #A7A9B5",
"nX c #A9B3BB",
/* pixels */
"5XqXqX{.].X.. e.L.kXnXtX0XqX6XqXqXqX0X8X7X8X0XqXW.Q.G < e.].xXnXqX8X0X0X8X0X0X8XqX8XyX0X7XuX5XR.G.< B _.&XcXcX+X6X0XqXqX",
"5X;X5X|.;X+.X a.fXfXrX@X>X,X}.|.;X;X;X;X1X;X;X,X{.|.D o '.fX*X4X;X;X;X,X,X;X1X;X|.}.;X;X|.;X;X|.Z.$ R 4XfXfXeX9X;X;X;X;X",
"T.S.R.}.yXi.q  XnX#XT.T.W.{.R.R.T.T.R.R.T.T.T.T.1XyXQ , lXvX#X].I.F.R.R.R.P.D.R.R.R.P.R.R.I.!.:X@Xk d.nXfXT.D.U.R.T.R.R.",
"P.H.P.R.7Xd.& .XbX'.H.U.P.P.P.P.T.U.P.P.P.P.P.P.@X2X^ * hXgXR.K.P.P.S.P.P.P.P.P.P.P.P.P.I.P.Y.:X'.> ^ bXrXS.D.K.P.P.S.P.",
"E.U.W.P.!.o.= G.jXT.R.W.P.P.U.U.E.E.P.P.P.E.W.P.Z.'.! g -X4XI.P.U.W.P.E.P.E.I.E.P.W.P.B.U.I.P.Y.n.f E yX4XP.W.I.U.R.U.U.",
"M.V.W.l.c.&.r R.qXR.T.R.B.U.U.P.P.P.H.P.P.P.U.T.n.x. .i ;X7X~.Y.P.P.P.P.P.P.P.P.H.U.U.P.P.Y.P.l.u.a &.iX|.P.E.B.P.P.P.P.",
"U.U./.v.f.$.d L.jXR.P.P.P.U.P.P.Y.R.P.R.W.R.I.P.9.3.[ / ;X8XW.P.R.U.U.T.E.I.Y.Y.P.U.U.P.P.I.P.3.;.a X.yX,XT.W.E.I.E.P.E.",
"R.B.W.v.w.#.F K.yX'.T.I.U.P.P.T.I.P.I.T.R.P.n.z.9.=.( ( 5X6XE.Y.T.P.T.P.T.P.P.P.U.H.P.P.P.I.P.y.,.s } 0X9XF.T.U.T.T.P.T.",
"S.@XU.x.j.} d K.yXR.].T.T.T.E.P.U.P.Y.n.W.I.l.&.=.7._ _ '.2X.XQ.W.T.P.T.W.T.P.P.H.Y.P.P.E.W.I.u.6.*  .aX X.XE.K.U.B.W.B.",
"Y.Y.P.l.k...r S.yXW.T.P.U.P.P.I.M.P.Y.I.n.3.n.P.0.5.v a 1X7XR.P.U.V.P.E.B.P.W.B.I.I.I.n.J.U.l.5.>.d | uX}.^.I.R.T.T.T.'.",
"V.B.B.k.<.Q , s.uX~.W.B.U.P.B.P.B.!.B.V.n.*.B.V.4.4.z * XX7XU.J.M.N.V.P.U.N.B.P.Y.I.I.I.P.Y.I.u.:.F %.tX;X~.I.B.W.P.H.T.",
"0.0.m.6.l y ; s.).>X>XP.P.l.k.3.9.k.>.8.8.*.9.4.T c & = G.;X-X-XB./.P.P.).Z.,.P.(.v.j.k.3.u.2.b C $ G '.;X:X).P.Y./.V.P.",
",.*.u.! q 9 + t.F.|.1XW.H.e.;.e.@.*.>.7.>.y.3.4.E V 9 B r._.1X+XD.I.D.b.F.C.;.C.L.j.2.2.1.y.@.l C ; H a..X1X.XR.c.H.Z.S.",
"` G K q X + . B ; e R { G o - 8 q $ 5 F ) ) e l ; X . # 1 7 K z l f I y $ 8 9 7 q > w w r _ ) < + . . 8 C L z z V 7 B 7 ",
"] X.C L i H N C C y Y | X.S 9 X - 9 F q.q.X.R U C C V S V D i l ! l Q H t - # 7 ; W Q U I } ' A V N S u K L P b V . B N ",
"xXzX5XiX5X5X0XwXwXqX0X7X:XR.h.1 V `.*XxXfXeXdXqX9XdX9XdXwX0X^.~.6XiX5X|.|.X.# q.`.kXbXaX5XqXwX9X6XqX3X1XqX8X;XI.J $ e.W.",
"kXeX2X;X5X5X2X-X,X5X<X;X#X4X_.% S &X%XfXhX;X;X7XeX=X1X;X;X~.B.V.5X2X;X-X;X;.O e.&XrXlX0X-X5X:X;X<X X;X2X1X-X-X1X&.O w.W.",
"E.K.T.T.R.R.T.T.T.R.R.R.'.2XXXx e.bXkXE.H.R.R.S.P.P.{.D.y.=.*.3.T.W.E.{.qXs., _.nX%XL.H.R.W.R.R.W.R.T.R.R.~.|.7Xd.& i.{.",
"K.P.P.I.R.P.T.P.K.E.P.B.W.;XQ.g +.jXeXH.Z.T.W.P.P.P.P.z.S.P.k.l.H.U.H.I.qXp.= [.nX#XZ.T.W.P.S.W.I.P.S.H.P.P.{.:Xd.* i.!.",
"U.P.R.W.W.P.U.U.H.K.U.P.!.R.D.w E 0X-XW.W.P.P.U.I.I.y.3.,XqXI.W.W.U.P.B.}.2.% p.tXW.T.W.Y.P.H.U.I.P.E.T.P.P.Y.~.@.f y.~.",
"P.P.U.P.P.P.V.P.P.P.P.Y.I.n.j.d @.yX,XP.P.P.Y.P.l.l.c.I.;X-XS.E.I.P.U.M.l.;.6 x.yX'.T.S.P.U.P.H.P.P.P.U.Y.P.B.n.$.6 v.W.",
"I.I.I.P.P.E.P.W.~.I.B.Y.P.>.:.p +.hX|.D.P.U.W.W.l.3.|.uXR.S.W.T.I.M.(.M.>.&.G A.jX{.P.P.U.Y.P.W.P.P.P.P.U.U.l.3.#.p g.E.",
"P.P.P.P.P.P.T.P.T.T.H.P.I.3.7.) -.tX|.'.E.H.H.I.c.8.~.;XS.T.W.H.Y.P.W.l.=.o.e z.yX'.T.R.R.P.H.R.W.E.P.P.I.I.k.5.] M f.W.",
"W.E.I.E.R.T.T.T.E.E.U.Y.^.y.>.p %.tX|.D.T.K.T.R.I.Y.R.Z.R.W.P.E.U.U.U.n.i.O.* s.dX}.R.T.W.W.R.R.P.P.P.P.R.Y.n.3.#.) f.W.",
"U.W.m.Y.U.E.H.].R.L.P.B.Y.8.w.F #.uX;XI.^.R.S.R.U.P.I.!.I.U.K.K.P.W.K.x.8...= s.yX{.W.n.c.R.P.K.T.W.c.Y.U.Y.n.4.#.s g.E.",
"c.Y.Y.W.M.V.Y.P.P.Y.Y.W.~.3.>.F -.tX{.I.R.U.P.U.P.Y.P.n.I.Y.W.W.P.E.P.D.4.O.& s.yX{.n.4.=.n.R.~.P.Y.U.W.P.B.k.5.#.) v./.",
"5X|.U.c.5.m.^.0.f.8.9.5.4.c I 5 G W.>X>X~.B.P.U.P.W.Z.y.l.k.3.4.v.0.4.<.P k % e.=X=X).^.l.v.y.u.8.l.3.k.k.m...T 5 < :.'.",
"iX5XK.x.2.m.Y.g.>.3.3.i.u.x e . H A.|.qX>XR.^.R.D.T.j.q.w.1.i.m.5.*.1.+.r y - t.E.=X6X>XM.g.j.2.y.y.;.;.1.4. .x 7 7 e.].",
"z E { G l > C A - 6 ; y K , : : + B C E U U L k D 9 9 9 u - l l l v X.J + + @ B S K U T _ [ / 3 $ 4 u 8 6 I t & + @ : B ",
"* v ` G E t - @ X 9 3 d K : B B B B , K h L L L 8 $ . X B 3 H d x W { Z 2 B : 8 4 t l E } ' ` 2 8 O - B : R C : C B 8 ; ",
"8X7X,X;X0X]._.J - e.`.gXvX3X1XOXOX1X9XwXXX6X6XqX'.Z.H 8 r.].hXzX6X5X0X4X4X1X1X5XoX5X1X2X;X-X1X].r.- H A.].bXhX1X XOXoX1X",
"0X,X8X5X2X>X].R - h.%XlXlX4X1X0XqX5X<X8X,X7X;X1X=X'.D X A.4XlXkX0X;X1X5XiX6X,X>X6X0X:X,X<X6X8XR.F.< H ].fXzXgX4XqX7X,X8X",
"P.Y.P.U.P.}.jX@.> eXxX'.T.T.P.R.P.E.I.T.U.P.P.P.&XaX! h kXxX`.D.P.P.I.T.U.P.I.P.Y.Y.P.U.W.P.R.7X}.h +.xXgXT.H.Y.P.Y.P.T.",
"P.P.P.P.P.{.8XO.* 1XzXE.R.T.H.Y.W.P.P.P.P.I.P.P.'.8X! y hXkX`.I.P.T.U.P.T.P.U.T.P.W.P.P.U.P.R.>X'.h +.zXeXT.P.E.P.P.Y.P.",
"P.P.P.U.I.R.{. .* {.gXT.R.W.P.P.W.P.P.P.E.P.T.P.T.~.U y 1X3XE.U.P.R.P.R.U.I.P.E.P.Y.P.P.W.I.R.~.D.h ~ jX1XD.U.E.E.P.P.T.",
"P.P.P.E.R.b.n.T > !.qXT.'.T.P.U.P.I.E.I.P.I.U.I.n.c.Y a  X5XP.U.U.P.U.P.T.P.I.P.P.I.Y.P.P.R.P.n.u.q ^ dXXXD.Y.P.I.P.Y.P.",
"P.V.P.U.W.k.j.| w Q.qXR.R.P.B.U.E.P.I.P.I.P.R.P.k.3.| { ,X6XR.N.P.P.P.R.U.P.P.I.P.U.U.P.P.W.P.y.5.f o.iXXXI.R.P.P.P.P.E.",
"P.U.P.P.W.l.8.| d !.qXR.R.D.I.U.P.I.P.E.T.U.P.U.k.=.s c  XwXR.P.U.R.P.U.R.P.E.P.P.T.R.P.P.R.P.3.*.6 +.iX|.T.I.P.U.T.P.I.",
"P.U.Y.B.W.l.*.| F R.yXW.T.I.I.P.P.P.T.P.U.P.W.P.l.3.c r .X0XT.Y.P.P.U.P.U.I.E.I.R.P.W.E.P.I.B.3.5.m -.iX>XU.I.R.I.U.I.P.",
"B.E.Y.P.W.l.=.| ( '.qXP.K.I.^.N.P.P.P.P.P.W.T.T.0.3.v v 1XgXF.P.P.R.P.R.P.P.P.P.T.P.I.U.P.I.P.k.3.m q.qX-XK.I.R.P.T.P.E.",
"I.I.W.U.Y.M.8.| G -XtXR.R.R.R.D.U.H.U.P.W.T.E.U.k.3.[ ( |.iXT.R.Y.B.P.W.P.P.W.P.U.H.E.P.P.H.E.3.=.M #.eXoX[.~.T.V.P.U.U.",
"T.P.U.M.V.l.5.T e ].0XR.R.S.P.W.P.P.W.P.W.Z.P.U.8.3.] ( ;XqXE.W.B.Y.U.P.P.P.P.P.P.P.I.Y.T.P.W.3.,.r ..yX-XP.M.9.M.P.T.R.",
"U.J.U.B.Y.z.1.Q e !.8X~.Y.B.M.U.Y.I.I.P.W.P.Y.I.m.<.} M {.;XE.P.P.(.U.P.U.U.P.W.P.P.I.P.Y.I.I.3.<.x ! qX-XH.l.*.B.P.I.R.",
"8.8.v.4.b.*.U w O s.;X{.>X).M.f.4.3.8.3.8.8.8.9...z e 5 Q.XX2X}.E.P.P.W.U.c.j.c.z.k.j.8.k.k.4.T L % D 1X}.<X).N.0.0.0.0.",
"5.5.2.<.u.E w ; 7 r..XoX8X}.S.e.;.3.>.f.7.=.3.u.U g 4 7 a._.3X9X{.S.!.{.F.n.w.&.;.>.>.,.3.2.<.a t - S `.].wX;XZ.9.4.3.3.",
"z b z z U q $ $ . 7 V E W t t t t 6 0 ) ) { a l 7 ; + # N N ] %.z r U i 4 C t 3 6 F _ ) | T c % 2 . - V S %. .z z l 8 8 ",
"z z l x E ; ; V 9 - 4 i e ; 4 + . 1 0 ] #.X.I z 9 t 9 2 B 1 ` G z l l q : - # B X Z [ ) R l K ; B 7 8 - 0 J I U L K C : ",
"1X9X5XXXqX[.F.].9X1XXX8X|.R.r.1 J h.*XzXrX2XoXpX1X+XoX9XdX1XeX6XXX<X5X|.].X.@ t.`.fXcXfX2X XwX9X+X1XeX'.qXqX,X1XXXXX,X1X",
"1XuX;X5XuX{.b.;X:X<X8X6X;X#XF.$ H ].*XzXlX5X1X7X7X2X7X2X7X7X7X2X6X7XXX}.#X;.  g.%XfXlXuX:XtX7X;X7X7X7X7X7X5X7X,X5X7X5X5X",
"R.R.P.I.W.z.;.Z.E.R.I.D.W.2X Xk +.nXgXK.T.W.{.R.R.R.R.R.R.T.R.R.T.R.^.|.rXs.* `.nX%XE.P.P.W.P.R.R.R.R.R.R.R.R.R.R.T.R.R.",
"P.I.P.P.I.c.l.z.N.U.U.B.W.,X}.j +.bX0XA.Z.P.P.T.R.T.P.R.P.P.R.T.K.M.Z.{.3Xp.g G.nX-XH.P.I.P.n.W.T.R.T.T.R.T.T.I.T.T.P.P.",
"I.Y.R.U.P.P.P.c.=.M.U.U.E.W.G.* R 0X-XW.@XP.H.E.P.R.U.U.I.E.P.R.(.U.P.Y.~.d.= i.tX'.T.W.W.U.P.W.I.P.P.R.U.I.U.T.U.U.T.U.",
"U.P.P.U.P.U.U.l.4.n.V.N.M.v.z.a o.qX,XI.B.U.E.P.P.P.P.P.P.U.P.P.U.I.Y.S.n.;.6 z.qX'.P.B.B.Y.P.P.P.P.P.P.P.P.P.P.P.I.P.P.",
"Y.P.Y.Y.P.Y.W.B.~.R.Y.Y.P.8.7.p ;.uX;XI.c.U./.c.U.P.U.I.P.P.U.P.B.V.W.c.u.-./ Z.jX{.I.I.U.U.B.W.U.U.U.P.U.E.U.U.I.R.I.Y.",
"P.P.P.P.P.U.U.P.P.M.B.I.I.3.:.m %.0X{.R.E.H.U.R.P.P.P.P.P.P.P.P.Y.I.(.c.2.#.n A.qXR.T.T.Y.P.P.W.P.P.P.P.P.P.P.P.T.P.P.P.",
"P.I.I.P.R.R.P.I.K.E.U.^.^.4.7.) q.hX;XS.E.U.P.^.T.W.R.T.W.R.R.W.U.P.(.P.u.#.( Z.aX{.T.P.P.W.P.R.E.T.W.R.E.T.W.I.E.E.E.E.",
"U.P.U.M.p.n.(.n.0.0.m.v.k.^ U 5 R |.{.>X~.P.P.Y.W.Y.n.4.I.W.v.k.j.9.m.<.Q W 4 g.@X|.>XY.H.R.I.U.I.8.l.~.D.9.k.k.k.l.k.k.",
"W.I.K.M.4.c.J.k.4.>.5.7.>.P u o G ].|.yX7X{.P.H.J.P.l.v.H.U.y.4.3.3.0.| y y X X.#X X8X@X].'.R.U.P.8.x.T.c.j.k.3.3.v.>.y.",
"O.&.%.] | #.%. .! v ! } X.q - @ 7 R E @. .Q &.%.%.#.#._ #.,.T ! Q | | s - : @ A R O.<.$.%.-.$.#.$._ } %.} } | b { } F S ",
"* r m m s [ ( r x * x / ( - - : . o ; k j * S / / / ( m ( s w x k r _ p @ : - - . & w s / / / / ) / ) ( ( ) a x s ` 5 o "
};
